<svg xmlns="http://www.w3.org/2000/svg" viewBox="0 0 313 92"><defs><style>.cls-1{fill:#22252d;}.cls-2{fill:#fff;}.cls-3{fill:#10ffc6;}</style></defs><g id="Layer_2" data-name="Layer 2"><g id="Layer_1-2" data-name="Layer 1"><rect class="cls-1" width="313" height="92"/><path class="cls-2" d="M109,25.33a10.88,10.88,0,0,1,9.45,4.79V26.31h10.11V66.67H118.47V51.38A10.88,10.88,0,0,1,109,56.17c-6.76,0-12.47-5.51-12.47-15.42S102.26,25.33,109,25.33Zm9.58,15.42c0-4.53-2.43-7.22-6-7.22-3.81,0-6,3.08-6,7.22s2.17,7.22,6,7.22C116.24,48,118.6,45.28,118.6,40.75Z"/><path class="cls-2" d="M145.11,41.8c0,3.94,1.64,5.84,4.14,5.84s4.2-2,4.2-6.69V26.31h10.11V55.19H153.45V51.45a9.42,9.42,0,0,1-8.14,4.72c-6.17,0-10.3-4.13-10.3-11.48V26.31h10.1Z"/><path class="cls-2" d="M168.94,40.75c0-9.06,6.43-15.42,15.55-15.42,9.58,0,15.23,6.1,15.23,14.57a26.6,26.6,0,0,1-.2,3.21H178.91c.59,4.2,2.69,5.52,5.65,5.52s4.33-1.25,4.79-3.09h10c-1.37,7-7.61,10.63-14.76,10.63C175.43,56.17,168.94,49.81,168.94,40.75Zm9.84-3.28h11.09c-.32-3.09-2.42-4.6-5.51-4.6S179.31,34.19,178.78,37.47Z"/><path class="cls-2" d="M214.62,41.8c0,3.94,1.64,5.84,4.13,5.84s4.2-2,4.2-6.69V26.31h10.11V55.19H223V51.45a9.42,9.42,0,0,1-8.14,4.72c-6.17,0-10.3-4.13-10.3-11.48V26.31h10.11Z"/><path class="cls-2" d="M238.44,40.75c0-9.06,6.43-15.42,15.55-15.42,9.59,0,15.23,6.1,15.23,14.57a26.6,26.6,0,0,1-.2,3.21H248.41c.6,4.2,2.7,5.52,5.65,5.52s4.33-1.25,4.79-3.09h10c-1.38,7-7.62,10.63-14.77,10.63C244.94,56.17,238.44,49.81,238.44,40.75Zm9.84-3.28h11.09c-.32-3.09-2.42-4.6-5.51-4.6S248.81,34.19,248.28,37.47Z"/><path class="cls-3" d="M36.63,41.8c0,3.94,1.64,5.84,4.13,5.84S45,45.61,45,41V26.31H55.07V55.19H45V51.45a9.42,9.42,0,0,1-8.14,4.72c-6.16,0-10.3-4.13-10.3-11.48V26.31H36.63Z"/><path class="cls-3" d="M62,26.31H72.07v3.81a9.45,9.45,0,0,1,8.46-4.79c6.76,0,11,4.85,11,13.06v16.8H81.39V39.37c0-3.94-1.51-5.84-4.33-5.84-3.09,0-5,1.77-5,5.84V55.19H62Z"/><path class="cls-3" d="M274.14,50a6.17,6.17,0,1,1,6.17,6.17A6.11,6.11,0,0,1,274.14,50Z"/></g></g></svg>